<?xml version="1.0" standalone="no"?>
<!DOCTYPE svg PUBLIC "-//W3C//DTD SVG 20010904//EN"
 "http://www.w3.org/TR/2001/REC-SVG-20010904/DTD/svg10.dtd">
<svg version="1.0" xmlns="http://www.w3.org/2000/svg"
 width="180.000000pt" height="180.000000pt" viewBox="0 0 180.000000 180.000000"
 preserveAspectRatio="xMidYMid meet">

<g transform="translate(0.000000,180.000000) scale(0.100000,-0.100000)"
fill="#000000" stroke="none">
<path d="M398 1667 c-60 -35 -88 -85 -88 -157 0 -82 26 -127 92 -161 136 -70
299 59 259 204 -32 113 -166 171 -263 114z"/>
<path d="M734 1657 c-2 -7 -3 -78 -2 -157 l3 -145 158 -3 157 -3 0 161 0 160
-155 0 c-118 0 -157 -3 -161 -13z"/>
<path d="M1143 1655 c-19 -21 -18 -272 1 -291 11 -11 47 -14 160 -14 l146 0 0
160 0 160 -147 0 c-115 -1 -151 -4 -160 -15z"/>
<path d="M195 1441 c-8 -15 3 -31 21 -31 9 0 14 7 12 17 -4 20 -24 28 -33 14z"/>
<path d="M337 1263 c-4 -3 -7 -75 -7 -160 l0 -153 154 0 c131 0 155 2 160 16
3 9 6 74 6 146 0 99 -3 133 -14 144 -11 11 -46 14 -154 14 -76 0 -142 -3 -145
-7z"/>
<path d="M742 1258 c-8 -8 -12 -58 -12 -160 l0 -148 160 0 160 0 0 148 c0 102
-4 152 -12 160 -17 17 -279 17 -296 0z"/>
<path d="M343 853 c-10 -3 -13 -44 -13 -154 l0 -150 158 3 157 3 3 146 c2 145
2 147 -20 153 -27 7 -267 7 -285 -1z"/>
<path d="M743 853 c-10 -3 -13 -44 -13 -154 l0 -149 160 0 160 0 0 149 c0 127
-2 150 -16 155 -19 7 -273 7 -291 -1z"/>
<path d="M1146 844 c-13 -12 -16 -40 -16 -139 0 -68 3 -130 6 -139 5 -14 29
-16 160 -16 l154 0 0 149 c0 127 -2 150 -16 155 -9 3 -73 6 -144 6 -104 0
-132 -3 -144 -16z"/>
<path d="M332 298 l3 -153 135 -3 c198 -4 181 -19 178 156 l-3 147 -158 3
-158 3 3 -153z"/>
<path d="M730 300 c0 -178 -18 -162 180 -158 l135 3 3 153 3 152 -161 0 -160
0 0 -150z"/>
</g>
</svg>
